<mxfile host="Electron" agent="Mozilla/5.0 (Windows NT 10.0; Win64; x64) AppleWebKit/537.36 (KHTML, like Gecko) draw.io/28.0.6 Chrome/138.0.7204.100 Electron/37.2.3 Safari/537.36" version="28.0.6">
  <diagram name="Trang-1" id="B7_FYAixbeiR1SQi81Y3">
    <mxGraphModel dx="1042" dy="626" grid="1" gridSize="10" guides="1" tooltips="1" connect="1" arrows="1" fold="1" page="1" pageScale="1" pageWidth="827" pageHeight="1169" math="0" shadow="0">
      <root>
        <mxCell id="0" />
        <mxCell id="1" parent="0" />
        <mxCell id="jP7N8BsFxUA2M3VWG-kh-2" value="&lt;font style=&quot;font-size: 25px;&quot;&gt;Start&lt;/font&gt;" style="ellipse;whiteSpace=wrap;html=1;fillColor=#60a917;fontColor=#ffffff;strokeColor=#2D7600;" vertex="1" parent="1">
          <mxGeometry x="306.25" y="70" width="170" height="80" as="geometry" />
        </mxCell>
        <mxCell id="jP7N8BsFxUA2M3VWG-kh-4" value="" style="endArrow=classic;html=1;rounded=0;exitX=0.5;exitY=1;exitDx=0;exitDy=0;" edge="1" parent="1" source="jP7N8BsFxUA2M3VWG-kh-2" target="jP7N8BsFxUA2M3VWG-kh-5">
          <mxGeometry width="50" height="50" relative="1" as="geometry">
            <mxPoint x="330" y="140" as="sourcePoint" />
            <mxPoint x="395" y="200" as="targetPoint" />
          </mxGeometry>
        </mxCell>
        <mxCell id="jP7N8BsFxUA2M3VWG-kh-5" value="Chọn món ăn từ menu" style="shape=parallelogram;perimeter=parallelogramPerimeter;whiteSpace=wrap;html=1;fixedSize=1;" vertex="1" parent="1">
          <mxGeometry x="310" y="190" width="162.5" height="70" as="geometry" />
        </mxCell>
        <mxCell id="jP7N8BsFxUA2M3VWG-kh-10" style="edgeStyle=orthogonalEdgeStyle;rounded=0;orthogonalLoop=1;jettySize=auto;html=1;exitX=0.5;exitY=1;exitDx=0;exitDy=0;entryX=0.5;entryY=0;entryDx=0;entryDy=0;" edge="1" parent="1" source="jP7N8BsFxUA2M3VWG-kh-6" target="jP7N8BsFxUA2M3VWG-kh-12">
          <mxGeometry relative="1" as="geometry">
            <mxPoint x="390" y="470" as="targetPoint" />
          </mxGeometry>
        </mxCell>
        <mxCell id="jP7N8BsFxUA2M3VWG-kh-6" value="xác nhận món ăn trong giỏ hàng" style="rhombus;whiteSpace=wrap;html=1;" vertex="1" parent="1">
          <mxGeometry x="291.25" y="300" width="200" height="120" as="geometry" />
        </mxCell>
        <mxCell id="jP7N8BsFxUA2M3VWG-kh-7" value="" style="endArrow=classic;html=1;rounded=0;exitX=0.5;exitY=1;exitDx=0;exitDy=0;entryX=0.5;entryY=0;entryDx=0;entryDy=0;" edge="1" parent="1" source="jP7N8BsFxUA2M3VWG-kh-5" target="jP7N8BsFxUA2M3VWG-kh-6">
          <mxGeometry width="50" height="50" relative="1" as="geometry">
            <mxPoint x="330" y="340" as="sourcePoint" />
            <mxPoint x="380" y="290" as="targetPoint" />
          </mxGeometry>
        </mxCell>
        <mxCell id="jP7N8BsFxUA2M3VWG-kh-13" style="edgeStyle=orthogonalEdgeStyle;rounded=0;orthogonalLoop=1;jettySize=auto;html=1;" edge="1" parent="1" source="jP7N8BsFxUA2M3VWG-kh-12" target="jP7N8BsFxUA2M3VWG-kh-14">
          <mxGeometry relative="1" as="geometry">
            <mxPoint x="391.25" y="590.0000000000001" as="targetPoint" />
          </mxGeometry>
        </mxCell>
        <mxCell id="jP7N8BsFxUA2M3VWG-kh-12" value="Cung cấp địa chỉ và thanh toán" style="rounded=0;whiteSpace=wrap;html=1;" vertex="1" parent="1">
          <mxGeometry x="286.25" y="470" width="210" height="70" as="geometry" />
        </mxCell>
        <mxCell id="jP7N8BsFxUA2M3VWG-kh-16" style="edgeStyle=orthogonalEdgeStyle;rounded=0;orthogonalLoop=1;jettySize=auto;html=1;exitX=0.5;exitY=1;exitDx=0;exitDy=0;entryX=0.5;entryY=0;entryDx=0;entryDy=0;" edge="1" parent="1" source="jP7N8BsFxUA2M3VWG-kh-14" target="jP7N8BsFxUA2M3VWG-kh-15">
          <mxGeometry relative="1" as="geometry" />
        </mxCell>
        <mxCell id="jP7N8BsFxUA2M3VWG-kh-14" value="Nhận món ăn tại địa chỉ đã cung cấp" style="rounded=0;whiteSpace=wrap;html=1;" vertex="1" parent="1">
          <mxGeometry x="281.88" y="600" width="218.75" height="80" as="geometry" />
        </mxCell>
        <mxCell id="jP7N8BsFxUA2M3VWG-kh-15" value="End" style="ellipse;whiteSpace=wrap;html=1;fontSize=17;fillColor=#a20025;fontColor=#ffffff;strokeColor=#6F0000;" vertex="1" parent="1">
          <mxGeometry x="281.88" y="740" width="218.75" height="80" as="geometry" />
        </mxCell>
      </root>
    </mxGraphModel>
  </diagram>
</mxfile>
